<svg xmlns="http://www.w3.org/2000/svg" width="800" height="760" viewBox="0 0 800 760"><defs><linearGradient id="coat" x2=".9" y2="1"><stop stop-color="#626188"/><stop offset="1" stop-color="#24283f"/></linearGradient><linearGradient id="gold" x2=".5" y2="1"><stop stop-color="#fff0b5"/><stop offset="1" stop-color="#d59b46"/></linearGradient></defs><ellipse cx="400" cy="706" rx="245" ry="22" fill="#d4c3a5"/><path d="M170 346 Q299 96 574 218 L664 175 L638 306 Q766 498 572 593 L639 682 L492 619 Q307 729 170 543 L64 577 L119 441 L53 333 Z" fill="url(#coat)" stroke="#292d46" stroke-width="6" stroke-linejoin="round" stroke-linecap="round"/><path d="M191 360 Q341 219 554 311 Q673 411 528 555 Q355 644 205 518 Z" fill="#edb660" stroke="#292d46" stroke-width="6" stroke-linejoin="round" stroke-linecap="round"/><path d="M217 373 Q376 270 538 339 Q613 411 514 527 Q358 583 228 499 Z" fill="#292d46" stroke="#292d46" stroke-width="6" stroke-linejoin="round" stroke-linecap="round"/><path d="M240 358 L266 423 L292 335 L326 403 L368 311 L404 390 L453 318 L476 398 L530 343 L528 441 M246 513 L283 459 L319 551 L357 478 L401 557 L433 476 L474 544 L495 450" fill="none" stroke="#fff3d8" stroke-width="13" stroke-linejoin="round" stroke-linecap="round"/><circle cx="426" cy="186" r="44" fill="#edb660" stroke="#292d46" stroke-width="6"/><circle cx="426" cy="186" r="34.32" fill="#fff3d8" stroke="#292d46" stroke-width="6"/><path d="M426 213.28 L426 216.8" fill="none" stroke="#292d46" stroke-width="3" stroke-linejoin="round" stroke-linecap="round"/><path d="M439.64 209.62517301523948 L441.4 212.6735824365607" fill="none" stroke="#292d46" stroke-width="3" stroke-linejoin="round" stroke-linecap="round"/><path d="M449.6251730152395 199.64000000000001 L452.6735824365607 201.4" fill="none" stroke="#292d46" stroke-width="3" stroke-linejoin="round" stroke-linecap="round"/><path d="M453.28 186 L456.8 186" fill="none" stroke="#292d46" stroke-width="3" stroke-linejoin="round" stroke-linecap="round"/><path d="M449.6251730152395 172.36 L452.6735824365607 170.60000000000002" fill="none" stroke="#292d46" stroke-width="3" stroke-linejoin="round" stroke-linecap="round"/><path d="M439.64 162.37482698476052 L441.4 159.3264175634393" fill="none" stroke="#292d46" stroke-width="3" stroke-linejoin="round" stroke-linecap="round"/><path d="M426 158.72 L426 155.2" fill="none" stroke="#292d46" stroke-width="3" stroke-linejoin="round" stroke-linecap="round"/><path d="M412.36 162.37482698476052 L410.6 159.3264175634393" fill="none" stroke="#292d46" stroke-width="3" stroke-linejoin="round" stroke-linecap="round"/><path d="M402.37482698476055 172.35999999999999 L399.3264175634393 170.6" fill="none" stroke="#292d46" stroke-width="3" stroke-linejoin="round" stroke-linecap="round"/><path d="M398.72 186 L395.2 186" fill="none" stroke="#292d46" stroke-width="3" stroke-linejoin="round" stroke-linecap="round"/><path d="M402.3748269847605 199.64000000000001 L399.3264175634393 201.4" fill="none" stroke="#292d46" stroke-width="3" stroke-linejoin="round" stroke-linecap="round"/><path d="M412.36 209.62517301523948 L410.59999999999997 212.6735824365607" fill="none" stroke="#292d46" stroke-width="3" stroke-linejoin="round" stroke-linecap="round"/><path d="M426 165.76 V186 L440.08 193.04" fill="none" stroke="#292d46" stroke-width="7" stroke-linejoin="round" stroke-linecap="round"/><circle cx="426" cy="186" r="3.08" fill="#292d46" stroke="#292d46" stroke-width="6"/><circle cx="302" cy="254" r="18" fill="#88d9c6" stroke="#292d46" stroke-width="6"/><circle cx="572" cy="274" r="13" fill="#88d9c6" stroke="#292d46" stroke-width="6"/></svg>