<svg xmlns="http://www.w3.org/2000/svg" width="800" height="760" viewBox="0 0 800 760"><defs><linearGradient id="coat" x2=".9" y2="1"><stop stop-color="#626188"/><stop offset="1" stop-color="#24283f"/></linearGradient><linearGradient id="gold" x2=".5" y2="1"><stop stop-color="#fff0b5"/><stop offset="1" stop-color="#d59b46"/></linearGradient></defs><ellipse cx="400" cy="706" rx="245" ry="22" fill="#d4c3a5"/><path d="M273 680 Q340 541 352 433 L277 366 L194 370 L140 317 L239 321 L275 292 L231 198 L168 164 L258 168 L315 282 L350 276 L363 142 L413 90 L409 252 L469 277 L545 166 L629 140 L579 206 L535 319 L622 343 L686 310 L653 393 L521 399 L453 458 Q460 575 535 680 Z" fill="url(#coat)" stroke="#292d46" stroke-width="6" stroke-linejoin="round" stroke-linecap="round"/><path d="M299 670 Q400 575 507 670" fill="none" stroke="#edb660" stroke-width="16" stroke-linejoin="round" stroke-linecap="round"/><circle cx="192" cy="236" r="62" fill="#edb660" stroke="#292d46" stroke-width="6"/><circle cx="192" cy="236" r="48.36" fill="#fff3d8" stroke="#292d46" stroke-width="6"/><path d="M192 274.44 L192 279.4" fill="none" stroke="#292d46" stroke-width="3" stroke-linejoin="round" stroke-linecap="round"/><path d="M211.22 269.29001652147383 L213.7 273.58550252424465" fill="none" stroke="#292d46" stroke-width="3" stroke-linejoin="round" stroke-linecap="round"/><path d="M225.29001652147383 255.22 L229.58550252424465 257.7" fill="none" stroke="#292d46" stroke-width="3" stroke-linejoin="round" stroke-linecap="round"/><path d="M230.44 236 L235.4 236" fill="none" stroke="#292d46" stroke-width="3" stroke-linejoin="round" stroke-linecap="round"/><path d="M225.29001652147383 216.78 L229.58550252424465 214.3" fill="none" stroke="#292d46" stroke-width="3" stroke-linejoin="round" stroke-linecap="round"/><path d="M211.22 202.70998347852617 L213.7 198.41449747575535" fill="none" stroke="#292d46" stroke-width="3" stroke-linejoin="round" stroke-linecap="round"/><path d="M192 197.56 L192 192.6" fill="none" stroke="#292d46" stroke-width="3" stroke-linejoin="round" stroke-linecap="round"/><path d="M172.78 202.70998347852617 L170.3 198.41449747575535" fill="none" stroke="#292d46" stroke-width="3" stroke-linejoin="round" stroke-linecap="round"/><path d="M158.70998347852617 216.77999999999997 L154.41449747575535 214.29999999999998" fill="none" stroke="#292d46" stroke-width="3" stroke-linejoin="round" stroke-linecap="round"/><path d="M153.56 236 L148.6 236" fill="none" stroke="#292d46" stroke-width="3" stroke-linejoin="round" stroke-linecap="round"/><path d="M158.70998347852617 255.22 L154.41449747575535 257.7" fill="none" stroke="#292d46" stroke-width="3" stroke-linejoin="round" stroke-linecap="round"/><path d="M172.77999999999997 269.29001652147383 L170.29999999999998 273.58550252424465" fill="none" stroke="#292d46" stroke-width="3" stroke-linejoin="round" stroke-linecap="round"/><path d="M192 207.48 V236 L211.84 245.92" fill="none" stroke="#292d46" stroke-width="7" stroke-linejoin="round" stroke-linecap="round"/><circle cx="192" cy="236" r="4.340000000000001" fill="#292d46" stroke="#292d46" stroke-width="6"/><circle cx="311" cy="179" r="61" fill="#edb660" stroke="#292d46" stroke-width="6"/><circle cx="311" cy="179" r="47.58" fill="#fff3d8" stroke="#292d46" stroke-width="6"/><path d="M311 216.82 L311 221.7" fill="none" stroke="#292d46" stroke-width="3" stroke-linejoin="round" stroke-linecap="round"/><path d="M329.90999999999997 211.7530807711275 L332.35 215.97928474159554" fill="none" stroke="#292d46" stroke-width="3" stroke-linejoin="round" stroke-linecap="round"/><path d="M343.7530807711275 197.91 L347.9792847415955 200.35" fill="none" stroke="#292d46" stroke-width="3" stroke-linejoin="round" stroke-linecap="round"/><path d="M348.82 179 L353.7 179" fill="none" stroke="#292d46" stroke-width="3" stroke-linejoin="round" stroke-linecap="round"/><path d="M343.7530807711275 160.09 L347.9792847415955 157.65" fill="none" stroke="#292d46" stroke-width="3" stroke-linejoin="round" stroke-linecap="round"/><path d="M329.90999999999997 146.2469192288725 L332.35 142.02071525840446" fill="none" stroke="#292d46" stroke-width="3" stroke-linejoin="round" stroke-linecap="round"/><path d="M311 141.18 L311 136.3" fill="none" stroke="#292d46" stroke-width="3" stroke-linejoin="round" stroke-linecap="round"/><path d="M292.09000000000003 146.2469192288725 L289.65000000000003 142.02071525840446" fill="none" stroke="#292d46" stroke-width="3" stroke-linejoin="round" stroke-linecap="round"/><path d="M278.2469192288725 160.08999999999997 L274.0207152584045 157.64999999999998" fill="none" stroke="#292d46" stroke-width="3" stroke-linejoin="round" stroke-linecap="round"/><path d="M273.18 179 L268.3 179" fill="none" stroke="#292d46" stroke-width="3" stroke-linejoin="round" stroke-linecap="round"/><path d="M278.2469192288725 197.91 L274.0207152584045 200.35" fill="none" stroke="#292d46" stroke-width="3" stroke-linejoin="round" stroke-linecap="round"/><path d="M292.09 211.75308077112746 L289.65 215.9792847415955" fill="none" stroke="#292d46" stroke-width="3" stroke-linejoin="round" stroke-linecap="round"/><path d="M311 150.94 V179 L330.52 188.76" fill="none" stroke="#292d46" stroke-width="7" stroke-linejoin="round" stroke-linecap="round"/><circle cx="311" cy="179" r="4.2700000000000005" fill="#292d46" stroke="#292d46" stroke-width="6"/><circle cx="470" cy="168" r="56" fill="#edb660" stroke="#292d46" stroke-width="6"/><circle cx="470" cy="168" r="43.68" fill="#fff3d8" stroke="#292d46" stroke-width="6"/><path d="M470 202.72 L470 207.2" fill="none" stroke="#292d46" stroke-width="3" stroke-linejoin="round" stroke-linecap="round"/><path d="M487.36 198.0684020193957 L489.6 201.94819582834998" fill="none" stroke="#292d46" stroke-width="3" stroke-linejoin="round" stroke-linecap="round"/><path d="M500.0684020193957 185.36 L503.94819582835 187.6" fill="none" stroke="#292d46" stroke-width="3" stroke-linejoin="round" stroke-linecap="round"/><path d="M504.72 168 L509.2 168" fill="none" stroke="#292d46" stroke-width="3" stroke-linejoin="round" stroke-linecap="round"/><path d="M500.0684020193957 150.64000000000001 L503.94819582835 148.4" fill="none" stroke="#292d46" stroke-width="3" stroke-linejoin="round" stroke-linecap="round"/><path d="M487.36 137.9315979806043 L489.6 134.05180417165002" fill="none" stroke="#292d46" stroke-width="3" stroke-linejoin="round" stroke-linecap="round"/><path d="M470 133.28 L470 128.8" fill="none" stroke="#292d46" stroke-width="3" stroke-linejoin="round" stroke-linecap="round"/><path d="M452.64 137.9315979806043 L450.40000000000003 134.05180417165002" fill="none" stroke="#292d46" stroke-width="3" stroke-linejoin="round" stroke-linecap="round"/><path d="M439.9315979806043 150.64 L436.05180417165 148.39999999999998" fill="none" stroke="#292d46" stroke-width="3" stroke-linejoin="round" stroke-linecap="round"/><path d="M435.28 168 L430.8 168" fill="none" stroke="#292d46" stroke-width="3" stroke-linejoin="round" stroke-linecap="round"/><path d="M439.9315979806043 185.36 L436.05180417165 187.6" fill="none" stroke="#292d46" stroke-width="3" stroke-linejoin="round" stroke-linecap="round"/><path d="M452.64 198.0684020193957 L450.4 201.94819582834998" fill="none" stroke="#292d46" stroke-width="3" stroke-linejoin="round" stroke-linecap="round"/><path d="M470 142.24 V168 L487.92 176.96" fill="none" stroke="#292d46" stroke-width="7" stroke-linejoin="round" stroke-linecap="round"/><circle cx="470" cy="168" r="3.9200000000000004" fill="#292d46" stroke="#292d46" stroke-width="6"/><circle cx="578" cy="261" r="61" fill="#edb660" stroke="#292d46" stroke-width="6"/><circle cx="578" cy="261" r="47.58" fill="#fff3d8" stroke="#292d46" stroke-width="6"/><path d="M578 298.82 L578 303.7" fill="none" stroke="#292d46" stroke-width="3" stroke-linejoin="round" stroke-linecap="round"/><path d="M596.91 293.7530807711275 L599.35 297.9792847415955" fill="none" stroke="#292d46" stroke-width="3" stroke-linejoin="round" stroke-linecap="round"/><path d="M610.7530807711274 279.91 L614.9792847415955 282.35" fill="none" stroke="#292d46" stroke-width="3" stroke-linejoin="round" stroke-linecap="round"/><path d="M615.82 261 L620.7 261" fill="none" stroke="#292d46" stroke-width="3" stroke-linejoin="round" stroke-linecap="round"/><path d="M610.7530807711274 242.09 L614.9792847415955 239.65" fill="none" stroke="#292d46" stroke-width="3" stroke-linejoin="round" stroke-linecap="round"/><path d="M596.91 228.2469192288725 L599.35 224.02071525840446" fill="none" stroke="#292d46" stroke-width="3" stroke-linejoin="round" stroke-linecap="round"/><path d="M578 223.18 L578 218.3" fill="none" stroke="#292d46" stroke-width="3" stroke-linejoin="round" stroke-linecap="round"/><path d="M559.09 228.2469192288725 L556.65 224.02071525840446" fill="none" stroke="#292d46" stroke-width="3" stroke-linejoin="round" stroke-linecap="round"/><path d="M545.2469192288726 242.08999999999997 L541.0207152584045 239.64999999999998" fill="none" stroke="#292d46" stroke-width="3" stroke-linejoin="round" stroke-linecap="round"/><path d="M540.18 261 L535.3 261" fill="none" stroke="#292d46" stroke-width="3" stroke-linejoin="round" stroke-linecap="round"/><path d="M545.2469192288726 279.91 L541.0207152584045 282.35" fill="none" stroke="#292d46" stroke-width="3" stroke-linejoin="round" stroke-linecap="round"/><path d="M559.09 293.75308077112743 L556.65 297.9792847415955" fill="none" stroke="#292d46" stroke-width="3" stroke-linejoin="round" stroke-linecap="round"/><path d="M578 232.94 V261 L597.52 270.76" fill="none" stroke="#292d46" stroke-width="7" stroke-linejoin="round" stroke-linecap="round"/><circle cx="578" cy="261" r="4.2700000000000005" fill="#292d46" stroke="#292d46" stroke-width="6"/><circle cx="267" cy="395" r="48" fill="#edb660" stroke="#292d46" stroke-width="6"/><circle cx="267" cy="395" r="37.44" fill="#fff3d8" stroke="#292d46" stroke-width="6"/><path d="M267 424.76 L267 428.6" fill="none" stroke="#292d46" stroke-width="3" stroke-linejoin="round" stroke-linecap="round"/><path d="M281.88 420.7729160166249 L283.8 424.09845356715715" fill="none" stroke="#292d46" stroke-width="3" stroke-linejoin="round" stroke-linecap="round"/><path d="M292.7729160166249 409.88 L296.09845356715715 411.8" fill="none" stroke="#292d46" stroke-width="3" stroke-linejoin="round" stroke-linecap="round"/><path d="M296.76 395 L300.6 395" fill="none" stroke="#292d46" stroke-width="3" stroke-linejoin="round" stroke-linecap="round"/><path d="M292.7729160166249 380.12 L296.09845356715715 378.2" fill="none" stroke="#292d46" stroke-width="3" stroke-linejoin="round" stroke-linecap="round"/><path d="M281.88 369.2270839833751 L283.8 365.90154643284285" fill="none" stroke="#292d46" stroke-width="3" stroke-linejoin="round" stroke-linecap="round"/><path d="M267 365.24 L267 361.4" fill="none" stroke="#292d46" stroke-width="3" stroke-linejoin="round" stroke-linecap="round"/><path d="M252.12 369.2270839833751 L250.20000000000002 365.90154643284285" fill="none" stroke="#292d46" stroke-width="3" stroke-linejoin="round" stroke-linecap="round"/><path d="M241.2270839833751 380.12 L237.90154643284288 378.2" fill="none" stroke="#292d46" stroke-width="3" stroke-linejoin="round" stroke-linecap="round"/><path d="M237.24 395 L233.4 395" fill="none" stroke="#292d46" stroke-width="3" stroke-linejoin="round" stroke-linecap="round"/><path d="M241.2270839833751 409.88 L237.90154643284285 411.8" fill="none" stroke="#292d46" stroke-width="3" stroke-linejoin="round" stroke-linecap="round"/><path d="M252.11999999999998 420.7729160166249 L250.2 424.09845356715715" fill="none" stroke="#292d46" stroke-width="3" stroke-linejoin="round" stroke-linecap="round"/><path d="M267 372.92 V395 L282.36 402.68" fill="none" stroke="#292d46" stroke-width="7" stroke-linejoin="round" stroke-linecap="round"/><circle cx="267" cy="395" r="3.3600000000000003" fill="#292d46" stroke="#292d46" stroke-width="6"/><circle cx="549" cy="417" r="56" fill="#edb660" stroke="#292d46" stroke-width="6"/><circle cx="549" cy="417" r="43.68" fill="#fff3d8" stroke="#292d46" stroke-width="6"/><path d="M549 451.72 L549 456.2" fill="none" stroke="#292d46" stroke-width="3" stroke-linejoin="round" stroke-linecap="round"/><path d="M566.36 447.0684020193957 L568.6 450.94819582835" fill="none" stroke="#292d46" stroke-width="3" stroke-linejoin="round" stroke-linecap="round"/><path d="M579.0684020193958 434.36 L582.94819582835 436.6" fill="none" stroke="#292d46" stroke-width="3" stroke-linejoin="round" stroke-linecap="round"/><path d="M583.72 417 L588.2 417" fill="none" stroke="#292d46" stroke-width="3" stroke-linejoin="round" stroke-linecap="round"/><path d="M579.0684020193958 399.64 L582.94819582835 397.40000000000003" fill="none" stroke="#292d46" stroke-width="3" stroke-linejoin="round" stroke-linecap="round"/><path d="M566.36 386.9315979806043 L568.6 383.05180417165" fill="none" stroke="#292d46" stroke-width="3" stroke-linejoin="round" stroke-linecap="round"/><path d="M549 382.28 L549 377.8" fill="none" stroke="#292d46" stroke-width="3" stroke-linejoin="round" stroke-linecap="round"/><path d="M531.64 386.9315979806043 L529.4 383.05180417165" fill="none" stroke="#292d46" stroke-width="3" stroke-linejoin="round" stroke-linecap="round"/><path d="M518.9315979806042 399.64 L515.05180417165 397.4" fill="none" stroke="#292d46" stroke-width="3" stroke-linejoin="round" stroke-linecap="round"/><path d="M514.28 417 L509.8 417" fill="none" stroke="#292d46" stroke-width="3" stroke-linejoin="round" stroke-linecap="round"/><path d="M518.9315979806042 434.36 L515.05180417165 436.6" fill="none" stroke="#292d46" stroke-width="3" stroke-linejoin="round" stroke-linecap="round"/><path d="M531.64 447.0684020193957 L529.4 450.94819582835" fill="none" stroke="#292d46" stroke-width="3" stroke-linejoin="round" stroke-linecap="round"/><path d="M549 391.24 V417 L566.92 425.96" fill="none" stroke="#292d46" stroke-width="7" stroke-linejoin="round" stroke-linecap="round"/><circle cx="549" cy="417" r="3.9200000000000004" fill="#292d46" stroke="#292d46" stroke-width="6"/><circle cx="399" cy="354" r="94" fill="#edb660" stroke="#292d46" stroke-width="6"/><circle cx="399" cy="354" r="73.32000000000001" fill="#fff3d8" stroke="#292d46" stroke-width="6"/><path d="M399 412.28 L399 419.8" fill="none" stroke="#292d46" stroke-width="3" stroke-linejoin="round" stroke-linecap="round"/><path d="M428.14 404.4719605325571 L431.9 410.9844715690161" fill="none" stroke="#292d46" stroke-width="3" stroke-linejoin="round" stroke-linecap="round"/><path d="M449.4719605325571 383.14 L455.9844715690161 386.9" fill="none" stroke="#292d46" stroke-width="3" stroke-linejoin="round" stroke-linecap="round"/><path d="M457.28 354 L464.8 354" fill="none" stroke="#292d46" stroke-width="3" stroke-linejoin="round" stroke-linecap="round"/><path d="M449.4719605325571 324.86 L455.9844715690161 321.1" fill="none" stroke="#292d46" stroke-width="3" stroke-linejoin="round" stroke-linecap="round"/><path d="M428.14 303.5280394674429 L431.9 297.0155284309839" fill="none" stroke="#292d46" stroke-width="3" stroke-linejoin="round" stroke-linecap="round"/><path d="M399 295.72 L399 288.2" fill="none" stroke="#292d46" stroke-width="3" stroke-linejoin="round" stroke-linecap="round"/><path d="M369.86 303.5280394674429 L366.1 297.0155284309839" fill="none" stroke="#292d46" stroke-width="3" stroke-linejoin="round" stroke-linecap="round"/><path d="M348.5280394674429 324.85999999999996 L342.015528430984 321.09999999999997" fill="none" stroke="#292d46" stroke-width="3" stroke-linejoin="round" stroke-linecap="round"/><path d="M340.72 354 L333.2 354" fill="none" stroke="#292d46" stroke-width="3" stroke-linejoin="round" stroke-linecap="round"/><path d="M348.5280394674429 383.14 L342.0155284309839 386.9" fill="none" stroke="#292d46" stroke-width="3" stroke-linejoin="round" stroke-linecap="round"/><path d="M369.85999999999996 404.4719605325571 L366.09999999999997 410.984471569016" fill="none" stroke="#292d46" stroke-width="3" stroke-linejoin="round" stroke-linecap="round"/><path d="M399 310.76 V354 L429.08 369.04" fill="none" stroke="#292d46" stroke-width="7" stroke-linejoin="round" stroke-linecap="round"/><circle cx="399" cy="354" r="6.580000000000001" fill="#292d46" stroke="#292d46" stroke-width="6"/><path d="M139 664 q-34-66 12-103 q43 40-12 103 Z" fill="#edb660" stroke="#292d46" stroke-width="6" stroke-linejoin="round" stroke-linecap="round"/><path d="M204 664 q-34-66 12-103 q43 40-12 103 Z" fill="#88d9c6" stroke="#292d46" stroke-width="6" stroke-linejoin="round" stroke-linecap="round"/><path d="M269 664 q-34-66 12-103 q43 40-12 103 Z" fill="#edb660" stroke="#292d46" stroke-width="6" stroke-linejoin="round" stroke-linecap="round"/><path d="M334 664 q-34-66 12-103 q43 40-12 103 Z" fill="#88d9c6" stroke="#292d46" stroke-width="6" stroke-linejoin="round" stroke-linecap="round"/><path d="M399 664 q-34-66 12-103 q43 40-12 103 Z" fill="#edb660" stroke="#292d46" stroke-width="6" stroke-linejoin="round" stroke-linecap="round"/><path d="M464 664 q-34-66 12-103 q43 40-12 103 Z" fill="#88d9c6" stroke="#292d46" stroke-width="6" stroke-linejoin="round" stroke-linecap="round"/><path d="M529 664 q-34-66 12-103 q43 40-12 103 Z" fill="#edb660" stroke="#292d46" stroke-width="6" stroke-linejoin="round" stroke-linecap="round"/><path d="M594 664 q-34-66 12-103 q43 40-12 103 Z" fill="#88d9c6" stroke="#292d46" stroke-width="6" stroke-linejoin="round" stroke-linecap="round"/><path d="M659 664 q-34-66 12-103 q43 40-12 103 Z" fill="#edb660" stroke="#292d46" stroke-width="6" stroke-linejoin="round" stroke-linecap="round"/></svg>