<svg xmlns="http://www.w3.org/2000/svg" width="800" height="760" viewBox="0 0 800 760"><defs><linearGradient id="coat" x2=".9" y2="1"><stop stop-color="#626188"/><stop offset="1" stop-color="#24283f"/></linearGradient><linearGradient id="gold" x2=".5" y2="1"><stop stop-color="#fff0b5"/><stop offset="1" stop-color="#d59b46"/></linearGradient></defs><ellipse cx="400" cy="706" rx="245" ry="22" fill="#d4c3a5"/><circle cx="400" cy="377" r="208" fill="#292d46" stroke="#292d46" stroke-width="6"/><circle cx="400" cy="377" r="150" fill="#edb660" stroke="#292d46" stroke-width="6"/><circle cx="400" cy="377" r="117" fill="#fff3d8" stroke="#292d46" stroke-width="6"/><path d="M400 470 L400 482" fill="none" stroke="#292d46" stroke-width="3" stroke-linejoin="round" stroke-linecap="round"/><path d="M446.5 457.5403625519528 L452.5 467.93266739736606" fill="none" stroke="#292d46" stroke-width="3" stroke-linejoin="round" stroke-linecap="round"/><path d="M480.5403625519528 423.5 L490.93266739736606 429.5" fill="none" stroke="#292d46" stroke-width="3" stroke-linejoin="round" stroke-linecap="round"/><path d="M493 377 L505 377" fill="none" stroke="#292d46" stroke-width="3" stroke-linejoin="round" stroke-linecap="round"/><path d="M480.5403625519528 330.5 L490.93266739736606 324.5" fill="none" stroke="#292d46" stroke-width="3" stroke-linejoin="round" stroke-linecap="round"/><path d="M446.5 296.4596374480472 L452.5 286.06733260263394" fill="none" stroke="#292d46" stroke-width="3" stroke-linejoin="round" stroke-linecap="round"/><path d="M400 284 L400 272" fill="none" stroke="#292d46" stroke-width="3" stroke-linejoin="round" stroke-linecap="round"/><path d="M353.5 296.4596374480472 L347.50000000000006 286.06733260263394" fill="none" stroke="#292d46" stroke-width="3" stroke-linejoin="round" stroke-linecap="round"/><path d="M319.4596374480472 330.49999999999994 L309.067332602634 324.49999999999994" fill="none" stroke="#292d46" stroke-width="3" stroke-linejoin="round" stroke-linecap="round"/><path d="M307 377 L295 377" fill="none" stroke="#292d46" stroke-width="3" stroke-linejoin="round" stroke-linecap="round"/><path d="M319.4596374480472 423.5 L309.06733260263394 429.5" fill="none" stroke="#292d46" stroke-width="3" stroke-linejoin="round" stroke-linecap="round"/><path d="M353.49999999999994 457.54036255195274 L347.49999999999994 467.932667397366" fill="none" stroke="#292d46" stroke-width="3" stroke-linejoin="round" stroke-linecap="round"/><path d="M400 308 V377 L448 401" fill="none" stroke="#292d46" stroke-width="7" stroke-linejoin="round" stroke-linecap="round"/><circle cx="400" cy="377" r="10.500000000000002" fill="#292d46" stroke="#292d46" stroke-width="6"/><path d="M378 209 L418 305 L359 392 L447 479 L417 548" fill="none" stroke="#292d46" stroke-width="19" stroke-linejoin="round" stroke-linecap="round"/><g transform="translate(400 377) rotate(-29) scale(1 1)"><ellipse rx="312" ry="105" fill="none" stroke="#edb660" stroke-width="17"/></g><g transform="translate(400 377) rotate(48) scale(1 1)"><ellipse rx="284" ry="85" fill="none" stroke="#88d9c6" stroke-width="10"/></g><circle cx="170" cy="237" r="36" fill="#edb660" stroke="#292d46" stroke-width="6"/><circle cx="170" cy="237" r="28.080000000000002" fill="#fff3d8" stroke="#292d46" stroke-width="6"/><path d="M170 259.32 L170 262.2" fill="none" stroke="#292d46" stroke-width="3" stroke-linejoin="round" stroke-linecap="round"/><path d="M181.16 256.3296870124687 L182.6 258.8238401753679" fill="none" stroke="#292d46" stroke-width="3" stroke-linejoin="round" stroke-linecap="round"/><path d="M189.32968701246867 248.16 L191.82384017536785 249.6" fill="none" stroke="#292d46" stroke-width="3" stroke-linejoin="round" stroke-linecap="round"/><path d="M192.32 237 L195.2 237" fill="none" stroke="#292d46" stroke-width="3" stroke-linejoin="round" stroke-linecap="round"/><path d="M189.32968701246867 225.84 L191.82384017536785 224.4" fill="none" stroke="#292d46" stroke-width="3" stroke-linejoin="round" stroke-linecap="round"/><path d="M181.16 217.67031298753133 L182.6 215.17615982463215" fill="none" stroke="#292d46" stroke-width="3" stroke-linejoin="round" stroke-linecap="round"/><path d="M170 214.68 L170 211.8" fill="none" stroke="#292d46" stroke-width="3" stroke-linejoin="round" stroke-linecap="round"/><path d="M158.84 217.67031298753133 L157.4 215.17615982463215" fill="none" stroke="#292d46" stroke-width="3" stroke-linejoin="round" stroke-linecap="round"/><path d="M150.67031298753133 225.84 L148.17615982463215 224.39999999999998" fill="none" stroke="#292d46" stroke-width="3" stroke-linejoin="round" stroke-linecap="round"/><path d="M147.68 237 L144.8 237" fill="none" stroke="#292d46" stroke-width="3" stroke-linejoin="round" stroke-linecap="round"/><path d="M150.67031298753133 248.16 L148.17615982463215 249.6" fill="none" stroke="#292d46" stroke-width="3" stroke-linejoin="round" stroke-linecap="round"/><path d="M158.84 256.32968701246864 L157.39999999999998 258.8238401753678" fill="none" stroke="#292d46" stroke-width="3" stroke-linejoin="round" stroke-linecap="round"/><path d="M170 220.44 V237 L181.52 242.76" fill="none" stroke="#292d46" stroke-width="7" stroke-linejoin="round" stroke-linecap="round"/><circle cx="170" cy="237" r="2.5200000000000005" fill="#292d46" stroke="#292d46" stroke-width="6"/><circle cx="595" cy="568" r="44" fill="#edb660" stroke="#292d46" stroke-width="6"/><circle cx="595" cy="568" r="34.32" fill="#fff3d8" stroke="#292d46" stroke-width="6"/><path d="M595 595.28 L595 598.8" fill="none" stroke="#292d46" stroke-width="3" stroke-linejoin="round" stroke-linecap="round"/><path d="M608.64 591.6251730152395 L610.4 594.6735824365608" fill="none" stroke="#292d46" stroke-width="3" stroke-linejoin="round" stroke-linecap="round"/><path d="M618.6251730152395 581.64 L621.6735824365608 583.4" fill="none" stroke="#292d46" stroke-width="3" stroke-linejoin="round" stroke-linecap="round"/><path d="M622.28 568 L625.8 568" fill="none" stroke="#292d46" stroke-width="3" stroke-linejoin="round" stroke-linecap="round"/><path d="M618.6251730152395 554.36 L621.6735824365608 552.6" fill="none" stroke="#292d46" stroke-width="3" stroke-linejoin="round" stroke-linecap="round"/><path d="M608.64 544.3748269847605 L610.4 541.3264175634392" fill="none" stroke="#292d46" stroke-width="3" stroke-linejoin="round" stroke-linecap="round"/><path d="M595 540.72 L595 537.2" fill="none" stroke="#292d46" stroke-width="3" stroke-linejoin="round" stroke-linecap="round"/><path d="M581.36 544.3748269847605 L579.6 541.3264175634392" fill="none" stroke="#292d46" stroke-width="3" stroke-linejoin="round" stroke-linecap="round"/><path d="M571.3748269847605 554.36 L568.3264175634393 552.6" fill="none" stroke="#292d46" stroke-width="3" stroke-linejoin="round" stroke-linecap="round"/><path d="M567.72 568 L564.2 568" fill="none" stroke="#292d46" stroke-width="3" stroke-linejoin="round" stroke-linecap="round"/><path d="M571.3748269847605 581.64 L568.3264175634392 583.4" fill="none" stroke="#292d46" stroke-width="3" stroke-linejoin="round" stroke-linecap="round"/><path d="M581.36 591.6251730152395 L579.6 594.6735824365607" fill="none" stroke="#292d46" stroke-width="3" stroke-linejoin="round" stroke-linecap="round"/><path d="M595 547.76 V568 L609.08 575.04" fill="none" stroke="#292d46" stroke-width="7" stroke-linejoin="round" stroke-linecap="round"/><circle cx="595" cy="568" r="3.08" fill="#292d46" stroke="#292d46" stroke-width="6"/><circle cx="650" cy="217" r="26" fill="#edb660" stroke="#292d46" stroke-width="6"/><circle cx="650" cy="217" r="20.28" fill="#fff3d8" stroke="#292d46" stroke-width="6"/><path d="M650 233.12 L650 235.2" fill="none" stroke="#292d46" stroke-width="3" stroke-linejoin="round" stroke-linecap="round"/><path d="M658.06 230.96032950900516 L659.1 232.76166234887677" fill="none" stroke="#292d46" stroke-width="3" stroke-linejoin="round" stroke-linecap="round"/><path d="M663.9603295090052 225.06 L665.7616623488768 226.1" fill="none" stroke="#292d46" stroke-width="3" stroke-linejoin="round" stroke-linecap="round"/><path d="M666.12 217 L668.2 217" fill="none" stroke="#292d46" stroke-width="3" stroke-linejoin="round" stroke-linecap="round"/><path d="M663.9603295090052 208.94 L665.7616623488768 207.9" fill="none" stroke="#292d46" stroke-width="3" stroke-linejoin="round" stroke-linecap="round"/><path d="M658.06 203.03967049099484 L659.1 201.23833765112323" fill="none" stroke="#292d46" stroke-width="3" stroke-linejoin="round" stroke-linecap="round"/><path d="M650 200.88 L650 198.8" fill="none" stroke="#292d46" stroke-width="3" stroke-linejoin="round" stroke-linecap="round"/><path d="M641.94 203.03967049099484 L640.9 201.2383376511232" fill="none" stroke="#292d46" stroke-width="3" stroke-linejoin="round" stroke-linecap="round"/><path d="M636.0396704909948 208.94 L634.2383376511232 207.9" fill="none" stroke="#292d46" stroke-width="3" stroke-linejoin="round" stroke-linecap="round"/><path d="M633.88 217 L631.8 217" fill="none" stroke="#292d46" stroke-width="3" stroke-linejoin="round" stroke-linecap="round"/><path d="M636.0396704909948 225.06 L634.2383376511232 226.1" fill="none" stroke="#292d46" stroke-width="3" stroke-linejoin="round" stroke-linecap="round"/><path d="M641.9399999999999 230.96032950900513 L640.9 232.76166234887677" fill="none" stroke="#292d46" stroke-width="3" stroke-linejoin="round" stroke-linecap="round"/><path d="M650 205.04 V217 L658.32 221.16" fill="none" stroke="#292d46" stroke-width="7" stroke-linejoin="round" stroke-linecap="round"/><circle cx="650" cy="217" r="1.8200000000000003" fill="#292d46" stroke="#292d46" stroke-width="6"/><circle cx="288" cy="651" r="31" fill="#edb660" stroke="#292d46" stroke-width="6"/><circle cx="288" cy="651" r="24.18" fill="#fff3d8" stroke="#292d46" stroke-width="6"/><path d="M288 670.22 L288 672.7" fill="none" stroke="#292d46" stroke-width="3" stroke-linejoin="round" stroke-linecap="round"/><path d="M297.61 667.6450082607369 L298.85 669.7927512621224" fill="none" stroke="#292d46" stroke-width="3" stroke-linejoin="round" stroke-linecap="round"/><path d="M304.6450082607369 660.61 L306.7927512621223 661.85" fill="none" stroke="#292d46" stroke-width="3" stroke-linejoin="round" stroke-linecap="round"/><path d="M307.22 651 L309.7 651" fill="none" stroke="#292d46" stroke-width="3" stroke-linejoin="round" stroke-linecap="round"/><path d="M304.6450082607369 641.39 L306.7927512621223 640.15" fill="none" stroke="#292d46" stroke-width="3" stroke-linejoin="round" stroke-linecap="round"/><path d="M297.61 634.3549917392631 L298.85 632.2072487378776" fill="none" stroke="#292d46" stroke-width="3" stroke-linejoin="round" stroke-linecap="round"/><path d="M288 631.78 L288 629.3" fill="none" stroke="#292d46" stroke-width="3" stroke-linejoin="round" stroke-linecap="round"/><path d="M278.39 634.3549917392631 L277.15000000000003 632.2072487378776" fill="none" stroke="#292d46" stroke-width="3" stroke-linejoin="round" stroke-linecap="round"/><path d="M271.3549917392631 641.39 L269.2072487378777 640.15" fill="none" stroke="#292d46" stroke-width="3" stroke-linejoin="round" stroke-linecap="round"/><path d="M268.78 651 L266.3 651" fill="none" stroke="#292d46" stroke-width="3" stroke-linejoin="round" stroke-linecap="round"/><path d="M271.3549917392631 660.61 L269.2072487378777 661.85" fill="none" stroke="#292d46" stroke-width="3" stroke-linejoin="round" stroke-linecap="round"/><path d="M278.39 667.6450082607369 L277.15 669.7927512621224" fill="none" stroke="#292d46" stroke-width="3" stroke-linejoin="round" stroke-linecap="round"/><path d="M288 636.74 V651 L297.92 655.96" fill="none" stroke="#292d46" stroke-width="7" stroke-linejoin="round" stroke-linecap="round"/><circle cx="288" cy="651" r="2.1700000000000004" fill="#292d46" stroke="#292d46" stroke-width="6"/><path d="M211 88 L237 136 L192 123 Z M594 593 L647 635 L578 650 Z" fill="#edb660" stroke="#292d46" stroke-width="6" stroke-linejoin="round" stroke-linecap="round"/></svg>